grf
version=1
nRows=23
nColumns=46
inDegrees=yes
endheader
time	ground_force_1_vx	ground_force_1_vy	ground_force_1_vz	ground_force_1_px	ground_force_1_py	ground_force_1_pz	ground_moment_1_mx	ground_moment_1_my	ground_moment_1_mz	ground_force_2_vx	ground_force_2_vy	ground_force_2_vz	ground_force_2_px	ground_force_2_py	ground_force_2_pz	ground_moment_2_mx	ground_moment_2_my	ground_moment_2_mz	ground_force_3_vx	ground_force_3_vy	ground_force_3_vz	ground_force_3_px	ground_force_3_py	ground_force_3_pz	ground_moment_3_mx	ground_moment_3_my	ground_moment_3_mz	ground_force_4_vx	ground_force_4_vy	ground_force_4_vz	ground_force_4_px	ground_force_4_py	ground_force_4_pz	ground_moment_4_mx	ground_moment_4_my	ground_moment_4_mz	ground_force_5_vx	ground_force_5_vy	ground_force_5_vz	ground_force_5_px	ground_force_5_py	ground_force_5_pz	ground_moment_5_mx	ground_moment_5_my	ground_moment_5_mz
9.300000	0.000000	0.000000	0.000000	0.000000	0.000000	0.000000	0.000000	0.000000	0.000000	0.000000	0.000000	0.000000	0.000000	0.000000	0.000000	0.000000	0.000000	0.000000	0.000000	0.000000	0.000000	0.000000	0.000000	0.000000	0.000000	0.000000	0.000000	4.225068	528.690094	-19.745116	0.204559	0.000000	-1.078833	0.000000	4.746019	0.000000	0.544216	520.400434	22.738785	0.218910	0.000000	-1.394493	-0.000000	-3.286579	-0.000000
9.300500	0.000000	0.000000	0.000000	0.000000	0.000000	0.000000	0.000000	0.000000	0.000000	0.000000	0.000000	0.000000	0.000000	0.000000	0.000000	0.000000	0.000000	0.000000	0.000000	0.000000	0.000000	0.000000	0.000000	0.000000	0.000000	0.000000	0.000000	4.221756	528.660316	-19.754889	0.204566	0.000000	-1.078831	0.000000	4.744381	0.000000	0.531405	520.457194	22.746620	0.218912	0.000000	-1.394486	-0.000000	-3.287299	-0.000000
9.301000	0.000000	0.000000	0.000000	0.000000	0.000000	0.000000	0.000000	0.000000	0.000000	0.000000	0.000000	0.000000	0.000000	0.000000	0.000000	0.000000	0.000000	0.000000	0.000000	0.000000	0.000000	0.000000	0.000000	0.000000	0.000000	0.000000	0.000000	4.218656	528.629582	-19.764965	0.204573	0.000000	-1.078829	0.000000	4.742730	0.000000	0.518703	520.513327	22.754629	0.218915	0.000000	-1.394480	-0.000000	-3.287977	-0.000000
9.301500	0.000000	0.000000	0.000000	0.000000	0.000000	0.000000	0.000000	0.000000	0.000000	0.000000	0.000000	0.000000	0.000000	0.000000	0.000000	0.000000	0.000000	0.000000	0.000000	0.000000	0.000000	0.000000	0.000000	0.000000	0.000000	0.000000	0.000000	4.215784	528.597861	-19.775320	0.204580	0.000000	-1.078826	0.000000	4.741074	0.000000	0.506134	520.568837	22.762800	0.218917	0.000000	-1.394473	-0.000000	-3.288610	-0.000000
9.302000	0.000000	0.000000	0.000000	0.000000	0.000000	0.000000	0.000000	0.000000	0.000000	0.000000	0.000000	0.000000	0.000000	0.000000	0.000000	0.000000	0.000000	0.000000	0.000000	0.000000	0.000000	0.000000	0.000000	0.000000	0.000000	0.000000	0.000000	4.213150	528.565115	-19.785933	0.204587	0.000000	-1.078824	0.000000	4.739420	0.000000	0.493725	520.623707	22.771123	0.218919	0.000000	-1.394466	-0.000000	-3.289196	-0.000000
9.302500	0.000000	0.000000	0.000000	0.000000	0.000000	0.000000	0.000000	0.000000	0.000000	0.000000	0.000000	0.000000	0.000000	0.000000	0.000000	0.000000	0.000000	0.000000	0.000000	0.000000	0.000000	0.000000	0.000000	0.000000	0.000000	0.000000	0.000000	4.210765	528.531314	-19.796779	0.204595	0.000000	-1.078821	0.000000	4.737773	0.000000	0.481510	520.677903	22.779586	0.218920	0.000000	-1.394459	-0.000000	-3.289733	-0.000000
9.303000	0.000000	0.000000	0.000000	0.000000	0.000000	0.000000	0.000000	0.000000	0.000000	0.000000	0.000000	0.000000	0.000000	0.000000	0.000000	0.000000	0.000000	0.000000	0.000000	0.000000	0.000000	0.000000	0.000000	0.000000	0.000000	0.000000	0.000000	4.208633	528.496443	-19.807834	0.204602	0.000000	-1.078818	0.000000	4.736138	0.000000	0.469524	520.731379	22.788175	0.218922	0.000000	-1.394452	-0.000000	-3.290220	-0.000000
9.303500	0.000000	0.000000	0.000000	0.000000	0.000000	0.000000	0.000000	0.000000	0.000000	0.000000	0.000000	0.000000	0.000000	0.000000	0.000000	0.000000	0.000000	0.000000	0.000000	0.000000	0.000000	0.000000	0.000000	0.000000	0.000000	0.000000	0.000000	4.206751	528.460508	-19.819075	0.204610	0.000000	-1.078816	0.000000	4.734518	0.000000	0.457805	520.784088	22.796870	0.218923	0.000000	-1.394445	-0.000000	-3.290659	-0.000000
9.304000	0.000000	0.000000	0.000000	0.000000	0.000000	0.000000	0.000000	0.000000	0.000000	0.000000	0.000000	0.000000	0.000000	0.000000	0.000000	0.000000	0.000000	0.000000	0.000000	0.000000	0.000000	0.000000	0.000000	0.000000	0.000000	0.000000	0.000000	4.205104	528.423540	-19.830476	0.204618	0.000000	-1.078813	0.000000	4.732915	0.000000	0.446392	520.835982	22.805646	0.218924	0.000000	-1.394438	-0.000000	-3.291049	-0.000000
9.304500	0.000000	0.000000	0.000000	0.000000	0.000000	0.000000	0.000000	0.000000	0.000000	0.000000	0.000000	0.000000	0.000000	0.000000	0.000000	0.000000	0.000000	0.000000	0.000000	0.000000	0.000000	0.000000	0.000000	0.000000	0.000000	0.000000	0.000000	4.203667	528.385575	-19.842011	0.204626	0.000000	-1.078810	0.000000	4.731329	0.000000	0.435326	520.887005	22.814475	0.218925	0.000000	-1.394432	-0.000000	-3.291392	-0.000000
9.305000	0.000000	0.000000	0.000000	0.000000	0.000000	0.000000	0.000000	0.000000	0.000000	0.000000	0.000000	0.000000	0.000000	0.000000	0.000000	0.000000	0.000000	0.000000	0.000000	0.000000	0.000000	0.000000	0.000000	0.000000	0.000000	0.000000	0.000000	4.202414	528.346648	-19.853661	0.204634	0.000000	-1.078807	0.000000	4.729760	0.000000	0.424647	520.937097	22.823323	0.218926	0.000000	-1.394425	-0.000000	-3.291686	-0.000000
9.305500	0.000000	0.000000	0.000000	0.000000	0.000000	0.000000	0.000000	0.000000	0.000000	0.000000	0.000000	0.000000	0.000000	0.000000	0.000000	0.000000	0.000000	0.000000	0.000000	0.000000	0.000000	0.000000	0.000000	0.000000	0.000000	0.000000	0.000000	4.201318	528.306790	-19.865409	0.204642	0.000000	-1.078805	0.000000	4.728207	0.000000	0.414396	520.986190	22.832154	0.218927	0.000000	-1.394418	-0.000000	-3.291934	-0.000000
9.306000	0.000000	0.000000	0.000000	0.000000	0.000000	0.000000	0.000000	0.000000	0.000000	0.000000	0.000000	0.000000	0.000000	0.000000	0.000000	0.000000	0.000000	0.000000	0.000000	0.000000	0.000000	0.000000	0.000000	0.000000	0.000000	0.000000	0.000000	4.200350	528.266031	-19.877245	0.204651	0.000000	-1.078802	0.000000	4.726671	0.000000	0.404608	521.034210	22.840932	0.218927	0.000000	-1.394412	-0.000000	-3.292135	-0.000000
9.306500	0.000000	0.000000	0.000000	0.000000	0.000000	0.000000	0.000000	0.000000	0.000000	0.000000	0.000000	0.000000	0.000000	0.000000	0.000000	0.000000	0.000000	0.000000	0.000000	0.000000	0.000000	0.000000	0.000000	0.000000	0.000000	0.000000	0.000000	4.199482	528.224404	-19.889163	0.204659	0.000000	-1.078799	0.000000	4.725152	0.000000	0.395320	521.081084	22.849629	0.218928	0.000000	-1.394405	-0.000000	-3.292290	-0.000000
9.307000	0.000000	0.000000	0.000000	0.000000	0.000000	0.000000	0.000000	0.000000	0.000000	0.000000	0.000000	0.000000	0.000000	0.000000	0.000000	0.000000	0.000000	0.000000	0.000000	0.000000	0.000000	0.000000	0.000000	0.000000	0.000000	0.000000	0.000000	4.198691	528.181950	-19.901154	0.204667	0.000000	-1.078797	0.000000	4.723651	0.000000	0.386563	521.126742	22.858216	0.218928	0.000000	-1.394399	-0.000000	-3.292403	-0.000000
9.307500	0.000000	0.000000	0.000000	0.000000	0.000000	0.000000	0.000000	0.000000	0.000000	0.000000	0.000000	0.000000	0.000000	0.000000	0.000000	0.000000	0.000000	0.000000	0.000000	0.000000	0.000000	0.000000	0.000000	0.000000	0.000000	0.000000	0.000000	4.197957	528.138710	-19.913209	0.204676	0.000000	-1.078794	0.000000	4.722167	0.000000	0.378363	521.171118	22.866671	0.218928	0.000000	-1.394393	-0.000000	-3.292474	-0.000000
9.308000	0.000000	0.000000	0.000000	0.000000	0.000000	0.000000	0.000000	0.000000	0.000000	0.000000	0.000000	0.000000	0.000000	0.000000	0.000000	0.000000	0.000000	0.000000	0.000000	0.000000	0.000000	0.000000	0.000000	0.000000	0.000000	0.000000	0.000000	4.197267	528.094718	-19.925311	0.204684	0.000000	-1.078791	0.000000	4.720699	0.000000	0.370748	521.214151	22.874971	0.218928	0.000000	-1.394388	-0.000000	-3.292505	-0.000000
9.308500	0.000000	0.000000	0.000000	0.000000	0.000000	0.000000	0.000000	0.000000	0.000000	0.000000	0.000000	0.000000	0.000000	0.000000	0.000000	0.000000	0.000000	0.000000	0.000000	0.000000	0.000000	0.000000	0.000000	0.000000	0.000000	0.000000	0.000000	4.196610	528.049992	-19.937437	0.204692	0.000000	-1.078789	0.000000	4.719245	0.000000	0.363738	521.255791	22.883093	0.218928	0.000000	-1.394383	-0.000000	-3.292499	-0.000000
9.309000	0.000000	0.000000	0.000000	0.000000	0.000000	0.000000	0.000000	0.000000	0.000000	0.000000	0.000000	0.000000	0.000000	0.000000	0.000000	0.000000	0.000000	0.000000	0.000000	0.000000	0.000000	0.000000	0.000000	0.000000	0.000000	0.000000	0.000000	4.195977	528.004550	-19.949560	0.204701	0.000000	-1.078786	0.000000	4.717801	0.000000	0.357349	521.295999	22.891014	0.218928	0.000000	-1.394378	-0.000000	-3.292455	-0.000000
9.309500	0.000000	0.000000	0.000000	0.000000	0.000000	0.000000	0.000000	0.000000	0.000000	0.000000	0.000000	0.000000	0.000000	0.000000	0.000000	0.000000	0.000000	0.000000	0.000000	0.000000	0.000000	0.000000	0.000000	0.000000	0.000000	0.000000	0.000000	4.195360	527.958416	-19.961649	0.204709	0.000000	-1.078784	0.000000	4.716366	0.000000	0.351591	521.334759	22.898712	0.218928	0.000000	-1.394374	-0.000000	-3.292373	-0.000000
9.310000	0.000000	0.000000	0.000000	0.000000	0.000000	0.000000	0.000000	0.000000	0.000000	0.000000	0.000000	0.000000	0.000000	0.000000	0.000000	0.000000	0.000000	0.000000	0.000000	0.000000	0.000000	0.000000	0.000000	0.000000	0.000000	0.000000	0.000000	4.194754	527.911630	-19.973678	0.204718	0.000000	-1.078782	0.000000	4.714939	0.000000	0.346469	521.372063	22.906172	0.218928	0.000000	-1.394370	-0.000000	-3.292255	-0.000000
9.310500	0.000000	0.000000	0.000000	0.000000	0.000000	0.000000	0.000000	0.000000	0.000000	0.000000	0.000000	0.000000	0.000000	0.000000	0.000000	0.000000	0.000000	0.000000	0.000000	0.000000	0.000000	0.000000	0.000000	0.000000	0.000000	0.000000	0.000000	4.194151	527.864250	-19.985628	0.204726	0.000000	-1.078779	0.000000	4.713521	0.000000	0.341982	521.407911	22.913383	0.218928	0.000000	-1.394367	-0.000000	-3.292104	-0.000000
9.311000	0.000000	0.000000	0.000000	0.000000	0.000000	0.000000	0.000000	0.000000	0.000000	0.000000	0.000000	0.000000	0.000000	0.000000	0.000000	0.000000	0.000000	0.000000	0.000000	0.000000	0.000000	0.000000	0.000000	0.000000	0.000000	0.000000	0.000000	4.193540	527.816342	-19.997487	0.204735	0.000000	-1.078777	0.000000	4.712111	0.000000	0.338127	521.442298	22.920335	0.218928	0.000000	-1.394364	-0.000000	-3.291925	-0.000000
